PathFileType	4	(X/Y/Z)	 control3min.trc
DataRate	CameraRate	NumFrames	NumMarkers	Units	OrigDataRate	OrigDataStartFrame	OrigNumFrames
200	200	9	35	m	200	751	1000
Frame#	Time	C7			LSH			RSH			MAN			RASI			LASI			HIPR			HIPL			RPSI			LPSI			COX			RTHI1			RTHI2			RTHI3			RTHI4			RSHA1			RSHA2			RSHA3			RSHA4			RHEEL			RMET5			RMET1			RTOE			LTHI1			LTHI2			LTHI3			LTHI4			LSHA1			LSHA2			LSHA3			LSHA4			LHEEL			LMET5			LMET1			LTOE			
		X1	Y1	Z1	X2	Y2	Z2	X3	Y3	Z3	X4	Y4	Z4	X5	Y5	Z5	X6	Y6	Z6	X7	Y7	Z7	X8	Y8	Z8	X9	Y9	Z9	X10	Y10	Z10	X11	Y11	Z11	X12	Y12	Z12	X13	Y13	Z13	X14	Y14	Z14	X15	Y15	Z15	X16	Y16	Z16	X17	Y17	Z17	X18	Y18	Z18	X19	Y19	Z19	X20	Y20	Z20	X21	Y21	Z21	X22	Y22	Z22	X23	Y23	Z23	X24	Y24	Z24	X25	Y25	Z25	X26	Y26	Z26	X27	Y27	Z27	X28	Y28	Z28	X29	Y29	Z29	X30	Y30	Z30	X31	Y31	Z31	X32	Y32	Z32	X33	Y33	Z33	X34	Y34	Z34	X35	Y35	Z35	
751	3.7550	-0.000000	0.000000	-0.000000	-0.285996	1.302197	-0.683591	-0.269663	1.303926	-0.344862	-0.224518	1.283954	-0.519658	-0.209372	0.897966	-0.432490	-0.211085	0.910870	-0.630423	-0.260107	0.935019	-0.384609	-0.262801	0.952240	-0.653473	-0.358874	0.930951	-0.459260	-0.352656	0.940373	-0.572443	-0.362058	0.936906	-0.518994	-0.281659	0.685201	-0.348921	-0.259365	0.629764	-0.348330	-0.198750	0.652197	-0.356929	-0.214568	0.711300	-0.358818	-0.320252	0.286053	-0.329621	-0.339517	0.247540	-0.333475	-0.282408	0.227015	-0.339592	-0.267951	0.265036	-0.339380	-0.436265	0.081418	-0.388243	-0.295297	0.028404	-0.311883	-0.255743	0.032582	-0.391081	-0.230436	0.025365	-0.377885	-0.269482	0.702372	-0.694368	-0.249461	0.643985	-0.691081	-0.189467	0.659653	-0.673295	-0.200941	0.718970	-0.674028	-0.337921	0.257641	-0.707920	-0.359679	0.223854	-0.706396	-0.304907	0.197602	-0.689669	-0.289395	0.238628	-0.693977	-0.453282	0.078111	-0.674656	-0.295420	0.025415	-0.715859	-0.273411	0.031348	-0.635016	-0.246027	0.022958	-0.642000	
752	3.7600	-0.000000	0.000000	-0.000000	-0.286315	1.306787	-0.683601	-0.269982	1.308895	-0.345208	-0.224759	1.288697	-0.519843	-0.208791	0.902380	-0.432518	-0.210450	0.915512	-0.630222	-0.259219	0.939678	-0.384688	-0.261914	0.957159	-0.653130	-0.357983	0.935693	-0.459205	-0.351797	0.945177	-0.572294	-0.361221	0.941628	-0.518869	-0.282209	0.689832	-0.348828	-0.260357	0.634224	-0.348109	-0.199577	0.656169	-0.356656	-0.214897	0.715377	-0.358676	-0.322221	0.289262	-0.329464	-0.341078	0.250577	-0.333333	-0.283685	0.230566	-0.338862	-0.269682	0.268737	-0.338696	-0.435571	0.083864	-0.387935	-0.295071	0.028563	-0.311954	-0.255606	0.032675	-0.390817	-0.230444	0.025387	-0.377794	-0.269723	0.707155	-0.694685	-0.250001	0.648646	-0.691584	-0.189905	0.663944	-0.673834	-0.201067	0.723316	-0.674382	-0.338573	0.260875	-0.708888	-0.360022	0.226881	-0.707270	-0.304922	0.201133	-0.690769	-0.289829	0.242292	-0.695122	-0.452038	0.081031	-0.675412	-0.295069	0.025548	-0.715890	-0.273201	0.031523	-0.635384	-0.246048	0.022995	-0.642141	
753	3.7650	-0.000000	0.000000	-0.000000	-0.286619	1.311470	-0.683602	-0.270281	1.313953	-0.345560	-0.224962	1.293547	-0.520024	-0.208226	0.906924	-0.432609	-0.209892	0.920233	-0.630086	-0.258244	0.944565	-0.384889	-0.261126	0.962154	-0.652780	-0.357074	0.940473	-0.459126	-0.350984	0.950070	-0.572136	-0.360411	0.946440	-0.518729	-0.282882	0.694610	-0.348769	-0.261459	0.638826	-0.347878	-0.200524	0.660261	-0.356286	-0.215336	0.719586	-0.358476	-0.324204	0.292598	-0.329304	-0.342657	0.253727	-0.333192	-0.284955	0.234251	-0.338116	-0.271419	0.272533	-0.338012	-0.434719	0.086339	-0.387732	-0.294851	0.028753	-0.312050	-0.255454	0.032784	-0.390520	-0.230455	0.025414	-0.377680	-0.270051	0.712054	-0.694998	-0.250624	0.653421	-0.692110	-0.190408	0.668353	-0.674451	-0.201261	0.727786	-0.674794	-0.339176	0.264190	-0.709890	-0.360303	0.229996	-0.708187	-0.304876	0.204757	-0.691926	-0.290213	0.246048	-0.696317	-0.450707	0.084048	-0.676191	-0.294703	0.025698	-0.715921	-0.272955	0.031744	-0.635800	-0.246049	0.023048	-0.642292	
754	3.7700	-0.000000	0.000000	-0.000000	-0.286906	1.316224	-0.683590	-0.270561	1.319052	-0.345918	-0.225124	1.298473	-0.520202	-0.207680	0.911566	-0.432757	-0.209414	0.924990	-0.629995	-0.257214	0.949633	-0.385193	-0.260452	0.967168	-0.652441	-0.356186	0.945328	-0.459040	-0.350221	0.955002	-0.571977	-0.359646	0.951297	-0.518578	-0.283657	0.699477	-0.348739	-0.262636	0.643518	-0.347667	-0.201569	0.664442	-0.355830	-0.215892	0.723898	-0.358226	-0.326159	0.295997	-0.329140	-0.344204	0.256971	-0.333042	-0.286198	0.238021	-0.337375	-0.273133	0.276405	-0.337329	-0.433705	0.088828	-0.387630	-0.294627	0.028977	-0.312153	-0.255284	0.032908	-0.390191	-0.230469	0.025445	-0.377543	-0.270461	0.717029	-0.695297	-0.251327	0.658280	-0.692657	-0.190975	0.672849	-0.675148	-0.201522	0.732341	-0.675268	-0.339724	0.267541	-0.710920	-0.360514	0.233134	-0.709129	-0.304760	0.208429	-0.693127	-0.290538	0.249862	-0.697553	-0.449276	0.087123	-0.676972	-0.294321	0.025865	-0.715951	-0.272682	0.031998	-0.636268	-0.246035	0.023115	-0.642460	
755	3.7750	-0.000000	0.000000	-0.000000	-0.287174	1.321019	-0.683563	-0.270821	1.324148	-0.346288	-0.225245	1.303445	-0.520374	-0.207149	0.916261	-0.432962	-0.209009	0.929748	-0.629943	-0.256155	0.954832	-0.385580	-0.259890	0.972159	-0.652132	-0.355317	0.950214	-0.458939	-0.349513	0.959932	-0.571820	-0.358930	0.956162	-0.518413	-0.284528	0.704411	-0.348723	-0.263921	0.648300	-0.347427	-0.202704	0.668688	-0.355304	-0.216554	0.728277	-0.357939	-0.328061	0.299422	-0.328969	-0.345696	0.260238	-0.332876	-0.287377	0.241850	-0.336661	-0.274796	0.280311	-0.336652	-0.432579	0.091331	-0.387654	-0.294410	0.029224	-0.312270	-0.255095	0.033048	-0.389830	-0.230487	0.025479	-0.377386	-0.270952	0.722051	-0.695581	-0.252106	0.663191	-0.693220	-0.191608	0.677400	-0.675921	-0.201848	0.736944	-0.675801	-0.340209	0.270904	-0.711963	-0.360656	0.236269	-0.710095	-0.304569	0.212134	-0.694363	-0.290798	0.253709	-0.698818	-0.447752	0.090238	-0.677750	-0.293921	0.026051	-0.715979	-0.272373	0.032299	-0.636788	-0.245994	0.023202	-0.642640	
756	3.7800	-0.000000	0.000000	-0.000000	-0.287432	1.325824	-0.683524	-0.271065	1.329201	-0.346663	-0.225305	1.308425	-0.520543	-0.206647	0.920958	-0.433200	-0.208674	0.934471	-0.629926	-0.255096	0.960096	-0.386021	-0.259439	0.977083	-0.651867	-0.354459	0.955111	-0.458853	-0.348854	0.964824	-0.571653	-0.358261	0.961004	-0.518243	-0.285474	0.709370	-0.348721	-0.265303	0.653138	-0.347143	-0.203913	0.672979	-0.354715	-0.217307	0.732693	-0.357629	-0.329895	0.302837	-0.328783	-0.347111	0.263481	-0.332699	-0.288509	0.245695	-0.335970	-0.276389	0.284224	-0.335980	-0.431333	0.093833	-0.387851	-0.294198	0.029492	-0.312385	-0.254888	0.033207	-0.389445	-0.230504	0.025523	-0.377213	-0.271515	0.727083	-0.695845	-0.252957	0.668118	-0.693800	-0.192296	0.681963	-0.676763	-0.202237	0.741563	-0.676381	-0.340625	0.274251	-0.713024	-0.360719	0.239394	-0.711082	-0.304302	0.215829	-0.695618	-0.290990	0.257561	-0.700101	-0.446140	0.093379	-0.678525	-0.293502	0.026257	-0.716002	-0.272017	0.032644	-0.637363	-0.245919	0.023314	-0.642831	
757	3.7850	-0.000000	0.000000	-0.000000	-0.287677	1.330610	-0.683468	-0.271249	1.334204	-0.347052	-0.225392	1.313336	-0.520724	-0.206161	0.925620	-0.433478	-0.208402	0.939128	-0.629937	-0.254057	0.965367	-0.386488	-0.259093	0.981906	-0.651651	-0.353597	0.959954	-0.458769	-0.348246	0.969644	-0.571485	-0.357623	0.965804	-0.518077	-0.286484	0.714312	-0.348728	-0.266801	0.657997	-0.346807	-0.205175	0.677297	-0.354106	-0.218144	0.737109	-0.357300	-0.331661	0.306206	-0.328598	-0.348443	0.266670	-0.332508	-0.289619	0.249506	-0.335276	-0.277913	0.288118	-0.335319	-0.429984	0.096355	-0.388168	-0.293988	0.029766	-0.312484	-0.254663	0.033391	-0.389034	-0.230519	0.025579	-0.377023	-0.272141	0.732093	-0.696086	-0.253868	0.673026	-0.694384	-0.193035	0.686514	-0.677665	-0.202680	0.746162	-0.677001	-0.340974	0.277561	-0.714079	-0.360696	0.242476	-0.712079	-0.303953	0.219515	-0.696890	-0.291112	0.261391	-0.701390	-0.444451	0.096525	-0.679291	-0.293053	0.026498	-0.716012	-0.271613	0.033026	-0.637985	-0.245802	0.023454	-0.643035	
758	3.7900	-0.000000	0.000000	-0.000000	-0.287912	1.335352	-0.683397	-0.271294	1.339134	-0.347476	-0.225502	1.318146	-0.520917	-0.205699	0.930202	-0.433780	-0.208184	0.943688	-0.629969	-0.253054	0.970576	-0.386956	-0.258839	0.986604	-0.651484	-0.352765	0.964781	-0.458695	-0.347685	0.974362	-0.571312	-0.357010	0.970535	-0.517917	-0.287541	0.719199	-0.348754	-0.268409	0.662823	-0.346429	-0.206474	0.681601	-0.353490	-0.219049	0.741495	-0.356963	-0.333363	0.309492	-0.328419	-0.349687	0.269798	-0.332322	-0.290715	0.253249	-0.334560	-0.279369	0.291972	-0.334659	-0.428648	0.098981	-0.388448	-0.293774	0.030043	-0.312556	-0.254419	0.033597	-0.388599	-0.230527	0.025648	-0.376818	-0.272825	0.737045	-0.696296	-0.254830	0.677892	-0.694971	-0.193813	0.691023	-0.678616	-0.203170	0.750709	-0.677648	-0.341258	0.280805	-0.715128	-0.360591	0.245495	-0.713073	-0.303529	0.223153	-0.698155	-0.291167	0.265178	-0.702670	-0.442689	0.099646	-0.680041	-0.292570	0.026779	-0.715996	-0.271194	0.033406	-0.638649	-0.245671	0.023618	-0.643288	
759	3.7950	-0.000000	0.000000	-0.000000	-0.288149	1.340001	-0.683321	-0.271190	1.343971	-0.347932	-0.225638	1.322828	-0.521119	-0.205260	0.934669	-0.434098	-0.208011	0.948122	-0.630023	-0.252107	0.975675	-0.387407	-0.258655	0.991156	-0.651362	-0.351946	0.969534	-0.458625	-0.347166	0.978965	-0.571140	-0.356410	0.975178	-0.517767	-0.288639	0.724011	-0.348798	-0.270126	0.667605	-0.345963	-0.207802	0.685846	-0.352851	-0.219982	0.745825	-0.356605	-0.335014	0.312695	-0.328268	-0.350857	0.272821	-0.332140	-0.291799	0.256915	-0.333815	-0.280757	0.295759	-0.334015	-0.427308	0.101677	-0.388688	-0.293557	0.030323	-0.312632	-0.254159	0.033826	-0.388139	-0.230524	0.025737	-0.376589	-0.273553	0.741916	-0.696478	-0.255830	0.682680	-0.695551	-0.194619	0.695454	-0.679600	-0.203698	0.755175	-0.678314	-0.341482	0.283982	-0.716162	-0.360414	0.248444	-0.714067	-0.303045	0.226740	-0.699412	-0.291167	0.268900	-0.703929	-0.440875	0.102736	-0.680792	-0.292048	0.027114	-0.715937	-0.270757	0.033797	-0.639337	-0.245524	0.023838	-0.643612	
